<svg width="202" height="300" viewBox="0 0 202 300" fill="none" xmlns="http://www.w3.org/2000/svg">
<path d="M157.716 126.296C152.003 126.296 147.372 121.664 147.372 115.951V61.0351C147.372 38.7885 129.272 20.6886 107.025 20.6886H96.4628C74.2162 20.6886 56.1163 38.7885 56.1163 61.0351V115.951C56.1163 121.664 51.4862 126.296 45.772 126.296C40.0589 126.296 35.4277 121.664 35.4277 115.951V61.0351C35.4277 27.38 62.8088 0 96.4618 0H107.024C140.678 0 168.059 27.38 168.059 61.0351V115.951C168.061 121.664 163.43 126.296 157.716 126.296Z" fill="#F83E3E"/>
<path d="M191.884 224.492C191.884 234.286 183.944 242.226 174.15 242.226H29.3411C19.5461 242.226 11.6074 234.286 11.6074 224.492V103.182C11.6074 93.3878 19.5461 85.448 29.3411 85.448H174.151C183.945 85.448 191.885 93.3878 191.885 103.182V224.492H191.884Z" fill="#571EC4"/>
<path d="M168.715 182.604C168.715 186.385 165.648 189.453 161.866 189.453H41.6253C37.8427 189.453 34.7769 186.385 34.7769 182.604V145.071C34.7769 141.29 37.8427 138.223 41.6253 138.223H161.866C165.648 138.223 168.715 141.29 168.715 145.071V182.604Z" fill="#F83E3E"/>
<path d="M59.1526 164.79L57.5025 163.838L59.1547 162.884C60.0818 162.349 60.3978 161.162 59.8652 160.235C59.3263 159.307 58.1418 158.989 57.2158 159.525L55.5657 160.477V158.575C55.5657 157.503 54.6962 156.635 53.6258 156.635C52.5543 156.635 51.6858 157.503 51.6858 158.575V160.479L50.0347 159.525C49.1076 158.988 47.921 159.307 47.3842 160.235C46.8496 161.163 47.1687 162.349 48.0958 162.884L49.7459 163.837L48.0968 164.789C47.1687 165.325 46.8506 166.51 47.3863 167.438C47.922 168.367 49.1086 168.683 50.0347 168.148L51.6858 167.197V169.102C51.6858 170.174 52.5532 171.042 53.6258 171.042C54.6951 171.042 55.5657 170.175 55.5657 169.102V167.198L57.2137 168.151C58.1408 168.686 59.3253 168.367 59.8631 167.439C60.3978 166.51 60.0818 165.326 59.1526 164.79Z" fill="white"/>
<path d="M83.2128 164.79L81.5648 163.838L83.2149 162.884C84.1409 162.349 84.458 161.162 83.9254 160.235C83.3876 159.307 82.202 158.989 81.276 159.525L79.6259 160.477V158.575C79.6259 157.503 78.7574 156.635 77.687 156.635C76.6166 156.635 75.746 157.503 75.746 158.575V160.479L74.0948 159.525C73.1678 158.988 71.9823 159.307 71.4455 160.235C70.9097 161.163 71.2289 162.349 72.157 162.884L73.8071 163.837L72.158 164.789C71.2289 165.325 70.9118 166.51 71.4465 167.438C71.9833 168.367 73.1678 168.683 74.0959 168.148L75.746 167.197V169.102C75.746 170.174 76.6155 171.042 77.687 171.042C78.7574 171.042 79.6259 170.175 79.6259 169.102V167.198L81.2739 168.151C82.201 168.686 83.3875 168.367 83.9233 167.439C84.458 166.51 84.1409 165.326 83.2128 164.79Z" fill="white"/>
<path d="M107.272 164.79L105.622 163.838L107.276 162.884C108.202 162.349 108.519 161.162 107.985 160.235C107.448 159.307 106.262 158.989 105.336 159.525L103.685 160.477V158.575C103.685 157.503 102.817 156.635 101.746 156.635C100.676 156.635 99.8056 157.503 99.8056 158.575V160.479L98.1555 159.525C97.2295 158.988 96.0408 159.307 95.5061 160.235C94.9683 161.163 95.2895 162.349 96.2145 162.884L97.8667 163.837L96.2176 164.789C95.2895 165.325 94.9725 166.51 95.5071 167.438C96.0418 168.367 97.2294 168.683 98.1565 168.148L99.8056 167.197V169.102C99.8056 170.174 100.675 171.042 101.746 171.042C102.817 171.042 103.685 170.175 103.685 169.102V167.198L105.332 168.151C106.261 168.686 107.447 168.367 107.982 167.439C108.519 166.51 108.202 165.326 107.272 164.79Z" fill="white"/>
<path d="M131.333 164.79L129.682 163.838L131.335 162.884C132.262 162.349 132.58 161.162 132.045 160.235C131.508 159.307 130.322 158.989 129.396 159.525L127.745 160.477V158.575C127.745 157.503 126.877 156.635 125.805 156.635C124.733 156.635 123.865 157.503 123.865 158.575V160.479L122.215 159.525C121.288 158.988 120.102 159.307 119.566 160.235C119.03 161.163 119.348 162.349 120.276 162.884L121.926 163.837L120.276 164.789C119.348 165.325 119.032 166.51 119.567 167.438C120.103 168.367 121.289 168.683 122.216 168.148L123.865 167.197V169.102C123.865 170.174 124.734 171.042 125.805 171.042C126.876 171.042 127.745 170.175 127.745 169.102V167.198L129.393 168.151C130.321 168.686 131.508 168.367 132.042 167.439C132.58 166.51 132.262 165.326 131.333 164.79Z" fill="white"/>
<path d="M155.393 164.79L153.743 163.838L155.396 162.884C156.323 162.349 156.639 161.162 156.105 160.235C155.569 159.307 154.383 158.989 153.456 159.525L151.806 160.477V158.575C151.806 157.503 150.936 156.635 149.867 156.635C148.796 156.635 147.927 157.503 147.927 158.575V160.479L146.275 159.525C145.349 158.988 144.162 159.307 143.625 160.235C143.091 161.163 143.411 162.349 144.336 162.884L145.988 163.837L144.337 164.789C143.411 165.325 143.093 166.51 143.627 167.438C144.163 168.367 145.349 168.683 146.276 168.148L147.927 167.197V169.102C147.927 170.174 148.795 171.042 149.867 171.042C150.936 171.042 151.806 170.175 151.806 169.102V167.198L153.454 168.151C154.381 168.686 155.568 168.367 156.103 167.439C156.64 166.51 156.323 165.326 155.393 164.79Z" fill="white"/>
<path d="M201.902 282.749C201.902 292.278 156.727 300 100.999 300C45.2721 300 0.0976562 292.277 0.0976562 282.749C0.0976562 273.221 45.2721 265.499 100.999 265.499C156.727 265.497 201.902 273.22 201.902 282.749Z" fill="url(#paint0_radial_2162_6483)"/>
<defs>
<radialGradient id="paint0_radial_2162_6483" cx="0" cy="0" r="1" gradientUnits="userSpaceOnUse" gradientTransform="translate(101 282.749) scale(100.902 17.2511)">
<stop stop-color="#424242" stop-opacity="0.6"/>
<stop offset="0.226" stop-color="#6F6F6F" stop-opacity="0.4644"/>
<stop offset="0.7608" stop-color="#D6D6D6" stop-opacity="0.1435"/>
<stop offset="1" stop-color="white" stop-opacity="0"/>
</radialGradient>
</defs>
</svg>
