<svg width="250" height="251" viewBox="0 0 250 251" fill="none" xmlns="http://www.w3.org/2000/svg">
<g clip-path="url(#clip0_2162_6655)">
<path d="M196.363 171.239C235.247 133.992 234.817 73.1924 195.405 35.4402C155.992 -2.31204 92.5202 -2.72112 53.6369 34.5265C14.7536 71.7741 15.1828 132.573 54.5957 170.326C94.0085 208.078 157.48 208.487 196.363 171.239Z" fill="#F83E3E"/>
<path d="M235.393 166.898C232.911 164.52 230.455 161.454 228.077 158.475C225.464 155.209 222.995 152.117 220.852 150.403C216.789 147.136 215.652 145.422 213.248 141.492C212.516 140.291 205.997 129.403 203.005 116.675C200.575 106.312 190.097 92.5458 185.067 85.9379C184.074 84.6363 183.316 83.6477 182.898 83.0344C181.983 81.7078 181.017 81.007 180.089 81.007C178.952 81.007 178.168 82.0207 177.946 82.3336C177.502 83.1596 179.501 88.4159 180.808 91.8825C181.853 94.6484 182.937 97.5018 183.473 99.5542C184.27 102.57 184.283 104.16 183.486 104.861C182.859 105.424 182.036 105.161 181.683 105.048C181.186 104.898 181.095 104.861 176.744 94.7109C172.498 84.8116 166.096 69.8561 162.608 65.1129C160.531 62.2845 159.812 62.5849 159.799 62.5974C158.937 62.9979 158.989 67.0778 159.433 68.4294L159.825 69.6434C165.208 86.1006 171.727 106.525 172.158 110.392C172.224 110.943 172.407 112.595 171.179 112.82C169.114 113.208 165.495 107.439 165.025 105.749C164.202 102.783 149.765 70.9825 147.91 69.5808C147.648 69.4431 147.4 69.3805 147.322 69.4306C147.204 69.5057 146.629 70.0689 147.074 73.7858C147.23 75.175 149.543 83.2347 151.999 91.7574C159.054 116.374 159.89 120.054 159.263 120.742C159.12 120.905 158.858 120.992 158.636 120.98C157.904 120.892 157.526 120.367 151.163 105.599C146.394 94.5357 138.49 76.1887 136.177 74.6368C135.132 77.3901 141.808 103.797 148.772 127.675C148.863 128.001 148.681 128.339 148.354 128.439C148.014 128.552 147.661 128.376 147.544 128.076C141.09 111.994 131.147 87.6024 130.193 86.3134C129.828 85.8128 129.449 85.5374 129.135 85.5374C129.096 85.5374 129.057 85.5374 129.031 85.5499C128.6 85.6501 128.012 86.451 127.763 88.3783C127.345 91.6823 134.165 133.983 142.958 166.822C151.333 198.06 178.325 210.775 178.6 210.888L223.517 234.566L247.936 178.111L235.393 166.898Z" fill="white"/>
<path d="M150.001 33.3925L152.389 37.5533L152.461 37.6793L152.589 37.7469L156.882 40.0067L152.59 42.2556L152.461 42.3232L152.389 42.4496L150.001 46.6105L147.625 42.4505L147.553 42.3235L147.423 42.2556L143.132 40.0067L147.424 37.7469L147.553 37.679L147.625 37.5525L150.001 33.3925Z" fill="#571EC4" stroke="#571EC4"/>
<path d="M173.974 2.2124L178.417 9.99674L186.543 14.2518L178.417 18.507L173.974 26.2788L169.532 18.507L161.419 14.2518L169.532 9.99674L173.974 2.2124Z" fill="#571EC4" stroke="#571EC4" stroke-width="2" stroke-miterlimit="10" stroke-linecap="round" stroke-linejoin="round"/>
<path d="M223.831 235.43L178.312 211.426C178.312 211.426 150.875 198.848 142.318 166.948C133.773 135.047 126.64 91.9952 127.11 88.2782C127.58 84.5613 129.383 84.0982 130.729 85.9379C132.075 87.7651 148.158 127.838 148.158 127.838C148.158 127.838 132.911 75.6381 135.916 73.9736C138.921 72.3091 157.342 120.192 158.727 120.354C160.112 120.517 146.851 77.4277 146.433 73.8484C146.015 70.2816 146.302 67.9663 148.262 69.0301C150.222 70.0939 164.946 102.971 165.665 105.574C166.383 108.177 172.093 115.536 171.518 110.442C170.943 105.349 159.315 70.1565 158.806 68.5796C158.309 67.0152 157.617 57.216 163.143 64.725C168.657 72.234 181.056 104.172 181.892 104.435C182.728 104.698 184.27 105.048 182.845 99.6919C181.421 94.3355 176.326 83.5225 177.397 81.9707C178.469 80.4188 180.925 79.0296 183.433 82.6715C185.942 86.3134 200.679 103.947 203.632 116.525C206.585 129.102 212.973 139.815 213.797 141.167C216.109 144.959 217.194 146.648 221.257 149.915C225.438 153.269 230.677 161.504 235.824 166.435L248.693 177.936M143.232 133.508C143.232 133.508 177.097 111.556 181.774 110.054" stroke="#571EC4" stroke-width="2" stroke-miterlimit="10" stroke-linecap="round" stroke-linejoin="round"/>
<path d="M185.942 116.036C185.942 116.036 186.151 120.367 177.606 135.998C171.871 146.473 177.606 155.959 188.542 165.934M150 143.983C150 143.983 162.503 136.999 176.039 161.942" stroke="#571EC4" stroke-width="2" stroke-miterlimit="10" stroke-linecap="round" stroke-linejoin="round"/>
<path d="M86.4385 101.97C89.9399 105.224 106.689 125.973 110.308 135.848" stroke="#571EC4" stroke-width="2" stroke-miterlimit="10" stroke-linecap="round" stroke-linejoin="round"/>
<path d="M1.30672 212.177C1.30672 212.177 38.6728 193.142 45.4013 175.633C52.1298 158.125 58.4794 132.306 54.8082 118.026C51.8816 106.65 48.0535 96.2378 48.0535 96.2378C48.0535 96.2378 52.9007 94.8361 59.5769 99.7044C64.4502 103.271 69.9767 110.768 69.6109 114.647C69.245 118.527 82.6498 93.2091 84.1915 89.8176C85.0538 87.9403 106.193 42.5483 106.193 42.5483L107.486 42.7611C109.864 43.1491 111.916 44.7009 112.451 46.9536L112.882 48.4054C112.882 48.4054 118.174 38.1431 118.775 38.0304C121.009 37.5799 125.216 39.5948 126 41.4971C127.437 45.0138 124.719 49.6193 124.719 49.6193C124.719 49.6193 125.869 50.3577 127.541 52.1474C129.789 54.5377 130.024 58.3423 128.351 67.4908C126.966 75.0373 125.15 79.305 125.15 79.305C125.15 79.305 130.05 75.7507 130.834 81.9081C131.382 86.2132 129.985 103.809 127.358 112.119C124.745 120.429 121.218 142.043 115.182 156.322C109.146 170.602 102.287 189.249 97.2696 194.093C92.2526 198.936 79.0047 209.536 69.8068 213.303C60.609 217.07 31.2388 247.144 29.8408 249.697C28.4429 252.25 -6.20569 250.761 1.89464 210.913" fill="white"/>
<path d="M1.30664 212.177C1.30664 212.177 38.6727 193.142 45.4012 175.633C52.1297 158.125 58.4794 132.306 54.8081 118.026C51.8815 106.65 48.0534 96.2378 48.0534 96.2378C48.0534 96.2378 52.9006 94.8361 59.5768 99.7044C64.4501 103.271 69.9766 110.768 69.6108 114.647C69.245 118.527 82.6497 93.2091 84.1914 89.8176C85.0537 87.9403 106.193 42.5483 106.193 42.5483L107.486 42.7611C109.864 43.1491 111.915 44.7009 112.451 46.9536L112.882 48.4054C112.882 48.4054 118.174 38.1431 118.775 38.0304C121.009 37.5799 125.216 39.5948 126 41.4971C127.437 45.0138 124.719 49.6193 124.719 49.6193C124.719 49.6193 125.869 50.3577 127.541 52.1474C129.788 54.5377 130.024 58.3423 128.351 67.4908C126.966 75.0373 125.15 79.305 125.15 79.305C125.15 79.305 130.05 75.7507 130.834 81.9081C131.382 86.2132 129.984 103.809 127.358 112.119C124.745 120.429 121.218 142.043 115.182 156.322C109.146 170.602 102.287 189.249 97.2695 194.093C92.2525 198.936 79.0046 209.536 69.8068 213.303C60.609 217.07 31.2387 247.144 29.8407 249.697M65.4561 123.383C65.4561 123.383 68.0038 118.477 69.5847 114.66" stroke="#571EC4" stroke-width="2" stroke-miterlimit="10" stroke-linecap="round" stroke-linejoin="round"/>
<path d="M89.4175 105.011L102.012 75.3251L112.856 48.4178" stroke="#571EC4" stroke-width="2" stroke-miterlimit="10" stroke-linecap="round" stroke-linejoin="round"/>
<path d="M96.3027 113.859L110.374 80.9068L122.485 49.5192C122.485 49.5192 125.647 50.0949 127.528 52.1473M104.677 124.234C104.677 124.234 123.478 82.7966 124.837 80.6816C126.209 78.529 128.456 78.9044 128.456 78.9044" stroke="#571EC4" stroke-width="2" stroke-miterlimit="10" stroke-linecap="round" stroke-linejoin="round"/>
</g>
<defs>
<clipPath id="clip0_2162_6655">
<rect width="250" height="250" fill="white" transform="translate(0 0.960938)"/>
</clipPath>
</defs>
</svg>
