<svg width="25" height="25" viewBox="0 0 25 25" fill="none" xmlns="http://www.w3.org/2000/svg">
<path d="M5.99219 14.9651L5.17813 18.0365L2.20277 18.1001C1.31357 16.4333 0.809204 14.5262 0.809204 12.4995C0.809204 10.5398 1.28077 8.69171 2.11667 7.06445H2.11731L4.76621 7.55528L5.92659 10.2164C5.68373 10.932 5.55136 11.7002 5.55136 12.4995C5.55145 13.3671 5.70693 14.1982 5.99219 14.9651Z" fill="#F83E3E"/>
<path d="M23.9943 10.293C24.1286 11.0079 24.1986 11.7462 24.1986 12.5008C24.1986 13.3469 24.1106 14.1722 23.9429 14.9683C23.3737 17.6774 21.8863 20.043 19.8258 21.717L19.8252 21.7163L16.4888 21.5443L16.0166 18.565C17.3838 17.7547 18.4522 16.4865 19.0151 14.9683H12.7623V10.293H19.1063H23.9943Z" fill="#518EF8"/>
<path d="M19.8195 21.7148L19.8201 21.7155C17.8162 23.3434 15.2707 24.3174 12.4996 24.3174C8.0465 24.3174 4.17486 21.8018 2.19983 18.0999L5.98925 14.9648C6.97674 17.6285 9.51908 19.5246 12.4996 19.5246C13.7807 19.5246 14.9809 19.1746 16.0108 18.5635L19.8195 21.7148Z" fill="#28B446"/>
<path d="M19.9636 3.40241L16.1755 6.53681C15.1096 5.86345 13.8496 5.47447 12.4998 5.47447C9.45178 5.47447 6.86189 7.45757 5.92387 10.2167L2.11453 7.06475H2.11389C4.06001 3.27255 7.98048 0.681641 12.4998 0.681641C15.337 0.681641 17.9385 1.70308 19.9636 3.40241Z" fill="#F83E3E"/>
</svg>
