<svg width="181" height="243" viewBox="0 0 181 243" fill="none" xmlns="http://www.w3.org/2000/svg">
<path d="M146.716 126.296C141.003 126.296 136.372 121.664 136.372 115.951V61.0351C136.372 38.7885 118.272 20.6886 96.0247 20.6886H85.4628C63.2162 20.6886 45.1163 38.7885 45.1163 61.0351V115.951C45.1163 121.664 40.4862 126.296 34.772 126.296C29.0589 126.296 24.4277 121.664 24.4277 115.951V61.0351C24.4277 27.38 51.8088 0 85.4618 0H96.0237C129.678 0 157.059 27.38 157.059 61.0351V115.951C157.061 121.664 152.43 126.296 146.716 126.296Z" fill="#F83E3E"/>
<path d="M180.884 224.492C180.884 234.286 172.944 242.226 163.15 242.226H18.3411C8.54614 242.226 0.607422 234.286 0.607422 224.492V103.182C0.607422 93.3878 8.54614 85.448 18.3411 85.448H163.151C172.945 85.448 180.885 93.3878 180.885 103.182V224.492H180.884Z" fill="#571EC4"/>
<path d="M157.715 182.604C157.715 186.385 154.648 189.453 150.866 189.453H30.6253C26.8427 189.453 23.7769 186.385 23.7769 182.604V145.071C23.7769 141.29 26.8427 138.223 30.6253 138.223H150.866C154.648 138.223 157.715 141.29 157.715 145.071V182.604Z" fill="#F83E3E"/>
<path d="M48.1526 164.79L46.5025 163.838L48.1547 162.884C49.0818 162.349 49.3978 161.162 48.8652 160.235C48.3263 159.307 47.1418 158.989 46.2158 159.525L44.5657 160.477V158.575C44.5657 157.503 43.6962 156.635 42.6258 156.635C41.5543 156.635 40.6858 157.503 40.6858 158.575V160.479L39.0347 159.525C38.1076 158.988 36.921 159.307 36.3842 160.235C35.8496 161.163 36.1687 162.349 37.0958 162.884L38.7459 163.837L37.0968 164.789C36.1687 165.325 35.8506 166.51 36.3863 167.438C36.922 168.367 38.1086 168.683 39.0347 168.148L40.6858 167.197V169.102C40.6858 170.174 41.5532 171.042 42.6258 171.042C43.6951 171.042 44.5657 170.175 44.5657 169.102V167.198L46.2137 168.151C47.1408 168.686 48.3253 168.367 48.8631 167.439C49.3978 166.51 49.0818 165.326 48.1526 164.79Z" fill="white"/>
<path d="M72.2128 164.79L70.5648 163.838L72.2149 162.884C73.1409 162.349 73.458 161.162 72.9254 160.235C72.3876 159.307 71.202 158.989 70.276 159.525L68.6259 160.477V158.575C68.6259 157.503 67.7574 156.635 66.687 156.635C65.6166 156.635 64.746 157.503 64.746 158.575V160.479L63.0948 159.525C62.1678 158.988 60.9823 159.307 60.4455 160.235C59.9097 161.163 60.2289 162.349 61.157 162.884L62.8071 163.837L61.158 164.789C60.2289 165.325 59.9118 166.51 60.4465 167.438C60.9833 168.367 62.1678 168.683 63.0959 168.148L64.746 167.197V169.102C64.746 170.174 65.6155 171.042 66.687 171.042C67.7574 171.042 68.6259 170.175 68.6259 169.102V167.198L70.2739 168.151C71.201 168.686 72.3875 168.367 72.9233 167.439C73.458 166.51 73.1409 165.326 72.2128 164.79Z" fill="white"/>
<path d="M96.2724 164.79L94.6223 163.838L96.2755 162.884C97.2015 162.349 97.5186 161.162 96.9849 160.235C96.4482 159.307 95.2616 158.989 94.3356 159.525L92.6855 160.477V158.575C92.6855 157.503 91.817 156.635 90.7455 156.635C89.6762 156.635 88.8056 157.503 88.8056 158.575V160.479L87.1555 159.525C86.2295 158.988 85.0408 159.307 84.5061 160.235C83.9683 161.163 84.2895 162.349 85.2145 162.884L86.8667 163.837L85.2176 164.789C84.2895 165.325 83.9725 166.51 84.5071 167.438C85.0418 168.367 86.2294 168.683 87.1565 168.148L88.8056 167.197V169.102C88.8056 170.174 89.6751 171.042 90.7455 171.042C91.817 171.042 92.6855 170.175 92.6855 169.102V167.198L94.3324 168.151C95.2605 168.686 96.4471 168.367 96.9818 167.439C97.5186 166.51 97.2015 165.326 96.2724 164.79Z" fill="white"/>
<path d="M120.333 164.79L118.682 163.838L120.335 162.884C121.262 162.349 121.58 161.162 121.045 160.235C120.508 159.307 119.322 158.989 118.396 159.525L116.745 160.477V158.575C116.745 157.503 115.877 156.635 114.805 156.635C113.733 156.635 112.865 157.503 112.865 158.575V160.479L111.215 159.525C110.288 158.988 109.102 159.307 108.566 160.235C108.03 161.163 108.348 162.349 109.276 162.884L110.926 163.837L109.276 164.789C108.348 165.325 108.032 166.51 108.567 167.438C109.103 168.367 110.289 168.683 111.216 168.148L112.865 167.197V169.102C112.865 170.174 113.734 171.042 114.805 171.042C115.876 171.042 116.745 170.175 116.745 169.102V167.198L118.393 168.151C119.321 168.686 120.508 168.367 121.042 167.439C121.58 166.51 121.262 165.326 120.333 164.79Z" fill="white"/>
<path d="M144.393 164.79L142.743 163.838L144.396 162.884C145.323 162.349 145.639 161.162 145.105 160.235C144.569 159.307 143.383 158.989 142.456 159.525L140.806 160.477V158.575C140.806 157.503 139.936 156.635 138.867 156.635C137.796 156.635 136.927 157.503 136.927 158.575V160.479L135.275 159.525C134.349 158.988 133.162 159.307 132.625 160.235C132.091 161.163 132.411 162.349 133.336 162.884L134.988 163.837L133.337 164.789C132.411 165.325 132.093 166.51 132.627 167.438C133.163 168.367 134.349 168.683 135.276 168.148L136.927 167.197V169.102C136.927 170.174 137.795 171.042 138.867 171.042C139.936 171.042 140.806 170.175 140.806 169.102V167.198L142.454 168.151C143.381 168.686 144.568 168.367 145.103 167.439C145.64 166.51 145.323 165.326 144.393 164.79Z" fill="white"/>
</svg>
