<svg width="158" height="41" viewBox="0 0 158 41" fill="none" xmlns="http://www.w3.org/2000/svg">
<path d="M17.4998 5.91711V35.0838M27.8118 10.1885L7.18786 30.8124M32.0832 20.5004H2.9165M27.8118 30.8124L7.18786 10.1885" stroke="white" stroke-width="3.125" stroke-linecap="round" stroke-linejoin="round"/>
<path d="M46.105 30.5L40.3162 10.7H43.795L47.7412 25L51.6737 10.7275L55.1525 10.7L59.0987 25L63.0312 10.7H66.51L60.735 30.5H57.4625L53.4062 16.42L49.3775 30.5H46.105ZM73.8667 30.9125C72.3633 30.9125 71.0433 30.5871 69.9067 29.9363C68.77 29.2854 67.8808 28.3825 67.2392 27.2275C66.6067 26.0725 66.2904 24.7433 66.2904 23.24C66.2904 21.6175 66.6021 20.2104 67.2254 19.0188C67.8488 17.8179 68.715 16.8875 69.8242 16.2275C70.9333 15.5675 72.2167 15.2375 73.6742 15.2375C75.2142 15.2375 76.5204 15.5996 77.5929 16.3238C78.6746 17.0388 79.4767 18.0517 79.9992 19.3625C80.5217 20.6733 80.7188 22.2179 80.5904 23.9963H77.3042V22.7863C77.295 21.1729 77.0108 19.995 76.4517 19.2525C75.8925 18.51 75.0125 18.1388 73.8117 18.1388C72.455 18.1388 71.4467 18.5604 70.7867 19.4038C70.1267 20.2379 69.7967 21.4617 69.7967 23.075C69.7967 24.5783 70.1267 25.7425 70.7867 26.5675C71.4467 27.3925 72.4092 27.805 73.6742 27.805C74.49 27.805 75.1913 27.6263 75.7779 27.2688C76.3738 26.9021 76.8321 26.375 77.1529 25.6875L80.4254 26.6775C79.8571 28.0158 78.9771 29.0563 77.7854 29.7988C76.6029 30.5412 75.2967 30.9125 73.8667 30.9125ZM68.7517 23.9963V21.4938H78.9679V23.9963H68.7517ZM82.2834 30.5L88.5259 10.7H93.3796L99.6221 30.5H96.2121L90.5471 12.735H91.2896L85.6934 30.5H82.2834ZM85.7621 26.21V23.1163H96.1571V26.21H85.7621ZM109.244 30.9125C107.796 30.9125 106.581 30.5687 105.601 29.8813C104.62 29.1938 103.882 28.2588 103.387 27.0763C102.892 25.8846 102.644 24.5508 102.644 23.075C102.644 21.5808 102.892 20.2425 103.387 19.06C103.882 17.8775 104.606 16.9471 105.559 16.2688C106.522 15.5813 107.709 15.2375 109.121 15.2375C110.523 15.2375 111.738 15.5813 112.764 16.2688C113.8 16.9471 114.602 17.8775 115.171 19.06C115.739 20.2333 116.023 21.5717 116.023 23.075C116.023 24.56 115.744 25.8938 115.184 27.0763C114.625 28.2588 113.837 29.1938 112.819 29.8813C111.802 30.5687 110.61 30.9125 109.244 30.9125ZM102.081 37.1V15.65H105.009V26.0725H105.422V37.1H102.081ZM108.736 27.9425C109.597 27.9425 110.308 27.7271 110.867 27.2963C111.426 26.8654 111.839 26.2833 112.104 25.55C112.379 24.8075 112.517 23.9825 112.517 23.075C112.517 22.1767 112.379 21.3608 112.104 20.6275C111.829 19.885 111.403 19.2983 110.826 18.8675C110.248 18.4275 109.515 18.2075 108.626 18.2075C107.782 18.2075 107.095 18.4138 106.563 18.8263C106.031 19.2296 105.637 19.7979 105.381 20.5313C105.133 21.2554 105.009 22.1033 105.009 23.075C105.009 24.0375 105.133 24.8854 105.381 25.6188C105.637 26.3521 106.036 26.925 106.577 27.3375C107.127 27.7408 107.846 27.9425 108.736 27.9425ZM126.19 30.9125C124.742 30.9125 123.527 30.5687 122.546 29.8813C121.566 29.1938 120.828 28.2588 120.333 27.0763C119.838 25.8846 119.59 24.5508 119.59 23.075C119.59 21.5808 119.838 20.2425 120.333 19.06C120.828 17.8775 121.552 16.9471 122.505 16.2688C123.468 15.5813 124.655 15.2375 126.066 15.2375C127.469 15.2375 128.683 15.5813 129.71 16.2688C130.746 16.9471 131.548 17.8775 132.116 19.06C132.685 20.2333 132.969 21.5717 132.969 23.075C132.969 24.56 132.689 25.8938 132.13 27.0763C131.571 28.2588 130.783 29.1938 129.765 29.8813C128.748 30.5687 127.556 30.9125 126.19 30.9125ZM119.026 37.1V15.65H121.955V26.0725H122.368V37.1H119.026ZM125.681 27.9425C126.543 27.9425 127.253 27.7271 127.813 27.2963C128.372 26.8654 128.784 26.2833 129.05 25.55C129.325 24.8075 129.463 23.9825 129.463 23.075C129.463 22.1767 129.325 21.3608 129.05 20.6275C128.775 19.885 128.349 19.2983 127.771 18.8675C127.194 18.4275 126.461 18.2075 125.571 18.2075C124.728 18.2075 124.041 18.4138 123.509 18.8263C122.977 19.2296 122.583 19.7979 122.326 20.5313C122.079 21.2554 121.955 22.1033 121.955 23.075C121.955 24.0375 122.079 24.8854 122.326 25.6188C122.583 26.3521 122.982 26.925 123.523 27.3375C124.073 27.7408 124.792 27.9425 125.681 27.9425ZM136.275 30.5V10.2875H139.588V30.5H136.275ZM145.66 37.1L148.52 29.2488L148.575 31.5587L142.098 15.65H145.55L150.142 27.42H149.262L153.731 15.65H157.045L148.767 37.1H145.66Z" fill="white"/>
</svg>
