<svg width="158" height="41" viewBox="0 0 158 41" fill="none" xmlns="http://www.w3.org/2000/svg">
<path d="M17.4998 6.2124V35.3791M27.8118 10.4838L7.18786 31.1077M32.0832 20.7957H2.9165M27.8118 31.1077L7.18786 10.4838" stroke="#F83E3E" stroke-width="3.125" stroke-linecap="round" stroke-linejoin="round"/>
<path d="M46.105 30.7954L40.3163 10.9954H43.795L47.7412 25.2954L51.6737 11.0229L55.1525 10.9954L59.0987 25.2954L63.0312 10.9954H66.51L60.735 30.7954H57.4625L53.4062 16.7154L49.3775 30.7954H46.105ZM73.8667 31.2079C72.3633 31.2079 71.0433 30.8825 69.9067 30.2317C68.77 29.5808 67.8808 28.6779 67.2392 27.5229C66.6067 26.3679 66.2904 25.0387 66.2904 23.5354C66.2904 21.9129 66.6021 20.5058 67.2254 19.3142C67.8488 18.1133 68.715 17.1829 69.8242 16.5229C70.9333 15.8629 72.2167 15.5329 73.6742 15.5329C75.2142 15.5329 76.5204 15.895 77.5929 16.6192C78.6746 17.3342 79.4767 18.3471 79.9992 19.6579C80.5217 20.9687 80.7188 22.5133 80.5904 24.2917H77.3042V23.0817C77.295 21.4683 77.0108 20.2904 76.4517 19.5479C75.8925 18.8054 75.0125 18.4342 73.8117 18.4342C72.455 18.4342 71.4467 18.8558 70.7867 19.6992C70.1267 20.5333 69.7967 21.7571 69.7967 23.3704C69.7967 24.8737 70.1267 26.0379 70.7867 26.8629C71.4467 27.6879 72.4092 28.1004 73.6742 28.1004C74.49 28.1004 75.1913 27.9217 75.7779 27.5642C76.3738 27.1975 76.8321 26.6704 77.1529 25.9829L80.4254 26.9729C79.8571 28.3112 78.9771 29.3517 77.7854 30.0942C76.6029 30.8367 75.2967 31.2079 73.8667 31.2079ZM68.7517 24.2917V21.7892H78.9679V24.2917H68.7517ZM82.2834 30.7954L88.5259 10.9954H93.3796L99.6221 30.7954H96.2121L90.5471 13.0304H91.2896L85.6934 30.7954H82.2834ZM85.7621 26.5054V23.4117H96.1571V26.5054H85.7621ZM109.244 31.2079C107.796 31.2079 106.581 30.8642 105.601 30.1767C104.62 29.4892 103.882 28.5542 103.387 27.3717C102.892 26.18 102.644 24.8462 102.644 23.3704C102.644 21.8762 102.892 20.5379 103.387 19.3554C103.882 18.1729 104.606 17.2425 105.559 16.5642C106.522 15.8767 107.709 15.5329 109.121 15.5329C110.523 15.5329 111.738 15.8767 112.764 16.5642C113.8 17.2425 114.602 18.1729 115.171 19.3554C115.739 20.5287 116.023 21.8671 116.023 23.3704C116.023 24.8554 115.744 26.1892 115.184 27.3717C114.625 28.5542 113.837 29.4892 112.819 30.1767C111.802 30.8642 110.61 31.2079 109.244 31.2079ZM102.081 37.3954V15.9454H105.009V26.3679H105.422V37.3954H102.081ZM108.736 28.2379C109.597 28.2379 110.308 28.0225 110.867 27.5917C111.426 27.1608 111.839 26.5787 112.104 25.8454C112.379 25.1029 112.517 24.2779 112.517 23.3704C112.517 22.4721 112.379 21.6562 112.104 20.9229C111.829 20.1804 111.403 19.5937 110.826 19.1629C110.248 18.7229 109.515 18.5029 108.626 18.5029C107.782 18.5029 107.095 18.7092 106.563 19.1217C106.031 19.525 105.637 20.0933 105.381 20.8267C105.133 21.5508 105.009 22.3987 105.009 23.3704C105.009 24.3329 105.133 25.1808 105.381 25.9142C105.637 26.6475 106.036 27.2204 106.577 27.6329C107.127 28.0362 107.846 28.2379 108.736 28.2379ZM126.19 31.2079C124.742 31.2079 123.527 30.8642 122.546 30.1767C121.566 29.4892 120.828 28.5542 120.333 27.3717C119.838 26.18 119.59 24.8462 119.59 23.3704C119.59 21.8762 119.838 20.5379 120.333 19.3554C120.828 18.1729 121.552 17.2425 122.505 16.5642C123.468 15.8767 124.655 15.5329 126.066 15.5329C127.469 15.5329 128.683 15.8767 129.71 16.5642C130.746 17.2425 131.548 18.1729 132.116 19.3554C132.685 20.5287 132.969 21.8671 132.969 23.3704C132.969 24.8554 132.689 26.1892 132.13 27.3717C131.571 28.5542 130.783 29.4892 129.765 30.1767C128.748 30.8642 127.556 31.2079 126.19 31.2079ZM119.026 37.3954V15.9454H121.955V26.3679H122.368V37.3954H119.026ZM125.681 28.2379C126.543 28.2379 127.253 28.0225 127.813 27.5917C128.372 27.1608 128.784 26.5787 129.05 25.8454C129.325 25.1029 129.463 24.2779 129.463 23.3704C129.463 22.4721 129.325 21.6562 129.05 20.9229C128.775 20.1804 128.349 19.5937 127.771 19.1629C127.194 18.7229 126.461 18.5029 125.571 18.5029C124.728 18.5029 124.041 18.7092 123.509 19.1217C122.977 19.525 122.583 20.0933 122.326 20.8267C122.079 21.5508 121.955 22.3987 121.955 23.3704C121.955 24.3329 122.079 25.1808 122.326 25.9142C122.583 26.6475 122.982 27.2204 123.523 27.6329C124.073 28.0362 124.792 28.2379 125.681 28.2379ZM136.275 30.7954V10.5829H139.588V30.7954H136.275ZM145.66 37.3954L148.52 29.5442L148.575 31.8542L142.098 15.9454H145.55L150.142 27.7154H149.262L153.731 15.9454H157.045L148.767 37.3954H145.66Z" fill="#F83E3E"/>
</svg>
