<svg width="20" height="21" viewBox="0 0 20 21" fill="none" xmlns="http://www.w3.org/2000/svg">
<g clip-path="url(#clip0_2116_648)">
<path d="M9.53834 2.55332C9.70914 2.14268 10.2909 2.14268 10.4617 2.55332L12.5278 7.5208C12.5998 7.69392 12.7626 7.8122 12.9495 7.82719L18.3123 8.25712C18.7556 8.29266 18.9354 8.84592 18.5976 9.13525L14.5117 12.6353C14.3693 12.7572 14.3071 12.9486 14.3506 13.131L15.5989 18.3642C15.7021 18.7968 15.2315 19.1387 14.8519 18.9069L10.2606 16.1025C10.1006 16.0048 9.89938 16.0048 9.73937 16.1025L5.14806 18.9069C4.76851 19.1387 4.29788 18.7968 4.40108 18.3642L5.64939 13.131C5.69289 12.9486 5.6307 12.7572 5.48831 12.6353L1.40241 9.13525C1.06464 8.84592 1.24441 8.29266 1.68773 8.25712L7.05054 7.82719C7.23744 7.8122 7.40024 7.69392 7.47225 7.5208L9.53834 2.55332Z" fill="white"/>
<g clip-path="url(#clip1_2116_648)">
<path d="M9.53834 2.55332C9.70914 2.14268 10.2909 2.14268 10.4617 2.55332L12.5278 7.5208C12.5998 7.69392 12.7626 7.8122 12.9495 7.82719L18.3123 8.25712C18.7556 8.29266 18.9354 8.84592 18.5976 9.13525L14.5117 12.6353C14.3693 12.7572 14.3071 12.9486 14.3506 13.131L15.5989 18.3642C15.7021 18.7968 15.2315 19.1387 14.8519 18.9069L10.2606 16.1025C10.1006 16.0048 9.89938 16.0048 9.73937 16.1025L5.14806 18.9069C4.76851 19.1387 4.29788 18.7968 4.40108 18.3642L5.64939 13.131C5.69289 12.9486 5.6307 12.7572 5.48831 12.6353L1.40241 9.13525C1.06464 8.84592 1.24441 8.29266 1.68773 8.25712L7.05054 7.82719C7.23744 7.8122 7.40024 7.69392 7.47225 7.5208L9.53834 2.55332Z" fill="#F83E3E"/>
</g>
</g>
<defs>
<clipPath id="clip0_2116_648">
<rect width="20" height="20" fill="white" transform="translate(0 0.943359)"/>
</clipPath>
<clipPath id="clip1_2116_648">
<rect width="20" height="20" fill="white" transform="translate(0 0.943359)"/>
</clipPath>
</defs>
</svg>
